<svg width="80" height="70" viewBox="0 0 80 70" fill="none" xmlns="http://www.w3.org/2000/svg">
<path d="M64.321 27.7083H63.2543L59.0877 18.6083C58.3435 16.9903 57.0637 15.6038 55.4126 14.6268C53.7614 13.6498 51.8142 13.1268 49.821 13.125H29.821C27.5053 13.1192 25.2591 13.8168 23.4657 15.0988C21.6724 16.3807 20.4431 18.1675 19.9877 20.1542L18.2543 27.7083H17.6543C15.0022 27.7083 12.4586 28.6302 10.5833 30.2712C8.7079 31.9121 7.65433 34.1377 7.65433 36.4583V45.2083C7.65433 45.9819 8.00552 46.7238 8.63064 47.2707C9.25576 47.8177 10.1036 48.125 10.9877 48.125H14.321C14.321 50.4457 15.3746 52.6712 17.2499 54.3122C19.1253 55.9531 21.6688 56.875 24.321 56.875C26.9732 56.875 29.5167 55.9531 31.3921 54.3122C33.2674 52.6712 34.321 50.4457 34.321 48.125H47.6543C47.6543 50.4457 48.7079 52.6712 50.5833 54.3122C52.4586 55.9531 55.0022 56.875 57.6543 56.875C60.3065 56.875 62.85 55.9531 64.7254 54.3122C66.6007 52.6712 67.6543 50.4457 67.6543 48.125H70.9877C71.8717 48.125 72.7196 47.8177 73.3447 47.2707C73.9698 46.7238 74.321 45.9819 74.321 45.2083V36.4583C74.321 34.1377 73.2674 31.9121 71.3921 30.2712C69.5167 28.6302 66.9731 27.7083 64.321 27.7083ZM44.321 18.9583H49.821C50.4829 18.9636 51.128 19.1411 51.6742 19.4684C52.2203 19.7956 52.6428 20.2577 52.8877 20.7958L56.0543 27.7083H44.321V18.9583ZM26.521 21.2917C26.6768 20.623 27.0957 20.0232 27.7048 19.5969C28.3139 19.1705 29.0745 18.9446 29.8543 18.9583H37.6543V27.7083H25.0543L26.521 21.2917ZM24.321 51.0417C23.6617 51.0417 23.0173 50.8706 22.4691 50.5501C21.9209 50.2296 21.4937 49.7741 21.2414 49.2412C20.9891 48.7082 20.9231 48.1218 21.0517 47.556C21.1803 46.9902 21.4978 46.4705 21.964 46.0626C22.4301 45.6547 23.0241 45.3769 23.6707 45.2644C24.3173 45.1518 24.9875 45.2096 25.5966 45.4304C26.2057 45.6511 26.7263 46.0249 27.0926 46.5046C27.4588 46.9842 27.6543 47.5481 27.6543 48.125C27.6543 48.8986 27.3031 49.6404 26.678 50.1874C26.0529 50.7344 25.205 51.0417 24.321 51.0417ZM57.6543 51.0417C56.995 51.0417 56.3506 50.8706 55.8024 50.5501C55.2543 50.2296 54.827 49.7741 54.5747 49.2412C54.3224 48.7082 54.2564 48.1218 54.385 47.556C54.5137 46.9902 54.8311 46.4705 55.2973 46.0626C55.7635 45.6547 56.3574 45.3769 57.004 45.2644C57.6506 45.1518 58.3208 45.2096 58.9299 45.4304C59.539 45.6511 60.0596 46.0249 60.4259 46.5046C60.7922 46.9842 60.9877 47.5481 60.9877 48.125C60.9877 48.8986 60.6365 49.6404 60.0113 50.1874C59.3862 50.7344 58.5384 51.0417 57.6543 51.0417ZM67.6543 42.2917H65.0543C64.117 41.3894 62.9746 40.6685 61.7003 40.1751C60.4259 39.6818 59.0478 39.427 57.6543 39.427C56.2608 39.427 54.8827 39.6818 53.6084 40.1751C52.334 40.6685 51.1916 41.3894 50.2543 42.2917H31.721C30.7837 41.3894 29.6413 40.6685 28.3669 40.1751C27.0926 39.6818 25.7145 39.427 24.321 39.427C22.9275 39.427 21.5494 39.6818 20.275 40.1751C19.0007 40.6685 17.8583 41.3894 16.921 42.2917H14.321V36.4583C14.321 35.6848 14.6722 34.9429 15.2973 34.3959C15.9224 33.849 16.7703 33.5417 17.6543 33.5417H64.321C65.205 33.5417 66.0529 33.849 66.678 34.3959C67.3031 34.9429 67.6543 35.6848 67.6543 36.4583V42.2917Z" fill="#E11D48"/>
</svg>
