<svg width="80" height="87" viewBox="0 0 80 87" fill="none" xmlns="http://www.w3.org/2000/svg">
<path d="M46.6667 39.8006H33.3333C31.5652 39.8006 29.8695 39.0382 28.6193 37.6811C27.369 36.324 26.6667 34.4833 26.6667 32.5641C26.6667 30.6449 27.369 28.8042 28.6193 27.4471C29.8695 26.09 31.5652 25.3276 33.3333 25.3276H50C50.8841 25.3276 51.7319 25.7088 52.357 26.3874C52.9821 27.0659 53.3333 27.9863 53.3333 28.9459C53.3333 29.9055 53.6845 30.8258 54.3096 31.5043C54.9348 32.1829 55.7826 32.5641 56.6667 32.5641C57.5507 32.5641 58.3986 32.1829 59.0237 31.5043C59.6488 30.8258 60 29.9055 60 28.9459C60 26.067 58.9464 23.3061 57.0711 21.2704C55.1957 19.2348 52.6522 18.0912 50 18.0912H43.3333V10.8547C43.3333 9.89508 42.9821 8.97477 42.357 8.29622C41.7319 7.61767 40.8841 7.23647 40 7.23647C39.1159 7.23647 38.2681 7.61767 37.643 8.29622C37.0179 8.97477 36.6667 9.89508 36.6667 10.8547V18.0912H33.3333C29.7971 18.0912 26.4057 19.616 23.9052 22.3302C21.4048 25.0444 20 28.7256 20 32.5641C20 36.4026 21.4048 40.0838 23.9052 42.798C26.4057 45.5122 29.7971 47.037 33.3333 47.037H46.6667C48.4348 47.037 50.1305 47.7994 51.3807 49.1565C52.631 50.5136 53.3333 52.3543 53.3333 54.2735C53.3333 56.1927 52.631 58.0334 51.3807 59.3905C50.1305 60.7476 48.4348 61.51 46.6667 61.51H30C29.1159 61.51 28.2681 61.1288 27.643 60.4502C27.0179 59.7717 26.6667 58.8513 26.6667 57.8917C26.6667 56.9321 26.3155 56.0118 25.6904 55.3333C25.0652 54.6547 24.2174 54.2735 23.3333 54.2735C22.4493 54.2735 21.6014 54.6547 20.9763 55.3333C20.3512 56.0118 20 56.9321 20 57.8917C20 60.7706 21.0536 63.5315 22.9289 65.5672C24.8043 67.6028 27.3478 68.7464 30 68.7464H36.6667V75.9829C36.6667 76.9425 37.0179 77.8628 37.643 78.5414C38.2681 79.2199 39.1159 79.6011 40 79.6011C40.8841 79.6011 41.7319 79.2199 42.357 78.5414C42.9821 77.8628 43.3333 76.9425 43.3333 75.9829V68.7464H46.6667C50.2029 68.7464 53.5943 67.2216 56.0948 64.5074C58.5952 61.7932 60 58.112 60 54.2735C60 50.435 58.5952 46.7538 56.0948 44.0396C53.5943 41.3254 50.2029 39.8006 46.6667 39.8006Z" fill="white"/>
</svg>
