<svg width="80" height="80" viewBox="0 0 80 80" fill="none" xmlns="http://www.w3.org/2000/svg">
<g clip-path="url(#clip0_51_80)">
<path fill-rule="evenodd" clip-rule="evenodd" d="M46.7833 9.36333C48.0167 8.47667 49.75 8.06333 51.4533 8.68667C55.0746 10.0133 58.438 11.9589 61.3933 14.4367C62.7833 15.6033 63.2933 17.3067 63.14 18.8133C62.89 21.3233 63.33 23.7467 64.54 25.8333C65.6067 27.69 67.2133 29.1567 69.1733 30.19L69.9233 30.5567C71.3033 31.18 72.53 32.4767 72.84 34.2667C73.4983 38.0605 73.4983 41.9395 72.84 45.7333C72.5633 47.3467 71.54 48.5567 70.33 49.2367L69.9233 49.4467C67.6233 50.48 65.7433 52.08 64.5367 54.1667C63.33 56.2567 62.89 58.6767 63.14 61.1867C63.29 62.6933 62.7833 64.4 61.3933 65.5633C58.438 68.0411 55.0746 69.9867 51.4533 71.3133C50.6793 71.5902 49.8493 71.6733 49.0358 71.5553C48.2224 71.4373 47.4501 71.1219 46.7867 70.6367C44.7333 69.1667 42.41 68.3333 40 68.3333C37.59 68.3333 35.2667 69.1633 33.2167 70.6367C32.5528 71.1225 31.78 71.4382 30.9659 71.5562C30.1517 71.6741 29.3211 71.5908 28.5467 71.3133C24.9253 69.9868 21.562 68.0412 18.6067 65.5633C17.9807 65.0315 17.4943 64.3547 17.1899 63.5919C16.8855 62.829 16.7722 62.0033 16.86 61.1867C17.11 58.6767 16.6667 56.2533 15.46 54.1667C14.361 52.3036 12.7538 50.7924 10.8267 49.81L10.0767 49.4433C9.32447 49.1102 8.66536 48.5978 8.15692 47.9511C7.64848 47.3043 7.30619 46.5429 7.15999 45.7333C6.50144 41.9395 6.50144 38.0605 7.15999 34.2667C7.43665 32.6533 8.45999 31.4433 9.66999 30.7633L10.0767 30.5567C12.3767 29.52 14.2567 27.9233 15.4633 25.8333C16.6667 23.7467 17.11 21.3233 16.86 18.8133C16.7722 17.9967 16.8855 17.171 17.1899 16.4081C17.4943 15.6453 17.9807 14.9685 18.6067 14.4367C21.562 11.9589 24.9254 10.0133 28.5467 8.68667C29.3207 8.41011 30.1506 8.32719 30.9641 8.44514C31.7775 8.56309 32.5497 8.87832 33.2133 9.36333C35.2633 10.8367 37.5867 11.6667 40 11.6667C42.4133 11.6667 44.7333 10.8367 46.7833 9.36333ZM49.9733 15.26C47.0867 17.16 43.6833 18.3333 40 18.3333C36.3167 18.3333 32.9133 17.1567 30.0267 15.26C27.7061 16.1967 25.5291 17.4557 23.56 19C23.76 22.4433 23.0767 25.9767 21.2367 29.1667C19.3933 32.3533 16.6767 34.71 13.5933 36.26C13.2459 38.739 13.2459 41.2543 13.5933 43.7333C16.6767 45.2833 19.3933 47.64 21.2367 50.8333C23.0767 54.0167 23.76 57.55 23.56 60.9933C25.5289 62.5388 27.7059 63.799 30.0267 64.7367C32.9133 62.8367 36.3167 61.6633 40 61.6633C43.6833 61.6633 47.0867 62.84 49.9733 64.7367C52.2938 63.7999 54.4708 62.5408 56.44 60.9967C56.24 57.55 56.9233 54.0167 58.7633 50.83C60.6033 47.64 63.3233 45.2833 66.4067 43.73C66.7539 41.2532 66.7539 38.7401 66.4067 36.2633C63.3233 34.71 60.6067 32.3533 58.7633 29.1633C56.9233 25.9767 56.24 22.4433 56.44 18.9967C54.4708 17.4524 52.2939 16.1967 49.9733 15.26ZM40 26.6667C43.5362 26.6667 46.9276 28.0714 49.4281 30.5719C51.9286 33.0724 53.3333 36.4638 53.3333 40C53.3333 43.5362 51.9286 46.9276 49.4281 49.4281C46.9276 51.9286 43.5362 53.3333 40 53.3333C36.4638 53.3333 33.0724 51.9286 30.5719 49.4281C28.0714 46.9276 26.6667 43.5362 26.6667 40C26.6667 36.4638 28.0714 33.0724 30.5719 30.5719C33.0724 28.0714 36.4638 26.6667 40 26.6667ZM40 33.3333C38.2319 33.3333 36.5362 34.0357 35.2859 35.286C34.0357 36.5362 33.3333 38.2319 33.3333 40C33.3333 41.7681 34.0357 43.4638 35.2859 44.714C36.5362 45.9643 38.2319 46.6667 40 46.6667C41.7681 46.6667 43.4638 45.9643 44.714 44.714C45.9643 43.4638 46.6667 41.7681 46.6667 40C46.6667 38.2319 45.9643 36.5362 44.714 35.286C43.4638 34.0357 41.7681 33.3333 40 33.3333Z" fill="white"/>
</g>
<defs>
<clipPath id="clip0_51_80">
<rect width="80" height="80" fill="white"/>
</clipPath>
</defs>
</svg>
