<svg width="208" height="208" viewBox="0 0 208 208" fill="none" xmlns="http://www.w3.org/2000/svg">
<g clip-path="url(#clip0_31_10)">
<path d="M173.333 26C177.931 26 182.339 27.8262 185.59 31.0768C188.841 34.3274 190.667 38.7362 190.667 43.3333V164.667C190.667 169.264 188.841 173.673 185.59 176.923C182.339 180.174 177.931 182 173.333 182H34.6668C30.0697 182 25.6609 180.174 22.4103 176.923C19.1597 173.673 17.3335 169.264 17.3335 164.667V43.3333C17.3335 38.7362 19.1597 34.3274 22.4103 31.0768C25.6609 27.8262 30.0697 26 34.6668 26H173.333ZM173.333 43.3333H34.6668V130.867L77.9568 87.5853C78.9628 86.5791 80.1572 85.7808 81.4718 85.2362C82.7863 84.6916 84.1953 84.4113 85.6182 84.4113C87.041 84.4113 88.45 84.6916 89.7646 85.2362C91.0791 85.7808 92.2735 86.5791 93.2795 87.5853L128.509 122.824L139.239 112.095C140.245 111.088 141.439 110.29 142.754 109.746C144.068 109.201 145.477 108.921 146.9 108.921C148.323 108.921 149.732 109.201 151.047 109.746C152.361 110.29 153.555 111.088 154.561 112.095L173.333 130.875V43.3333ZM134.333 60.6667C137.781 60.6667 141.088 62.0363 143.526 64.4743C145.964 66.9123 147.333 70.2189 147.333 73.6667C147.333 77.1145 145.964 80.4211 143.526 82.8591C141.088 85.297 137.781 86.6667 134.333 86.6667C130.886 86.6667 127.579 85.297 125.141 82.8591C122.703 80.4211 121.333 77.1145 121.333 73.6667C121.333 70.2189 122.703 66.9123 125.141 64.4743C127.579 62.0363 130.886 60.6667 134.333 60.6667Z" fill="#777777"/>
</g>
<defs>
<clipPath id="clip0_31_10">
<rect width="208" height="208" fill="white"/>
</clipPath>
</defs>
</svg>
